<svg width="96" height="96" xmlns="http://www.w3.org/2000/svg" xmlns:xlink="http://www.w3.org/1999/xlink" xml:space="preserve" overflow="hidden"><defs><clipPath id="clip0"><rect x="235" y="610" width="96" height="96"/></clipPath></defs><g clip-path="url(#clip0)" transform="translate(-235 -610)"><path d="M283 620C262 620 245 637 245 658 245 679 262 696 283 696 304 696 321 679 321 658 321 637 304 620 283 620ZM273.9 690.7 276.5 689.1 268.9 677.4 255.4 673.8 254.6 676.8C251.3 671.8 249.2 665.8 249 659.4L251.4 661.4 260.2 650.6 259.5 636.7 256.5 636.9C260.3 632.1 265.4 628.3 271.3 626.2L270 629 283 634 296 629 294.9 626.1C300.8 628.3 305.8 632 309.7 636.8L306.7 636.6 306 650.5 314.8 661.3 317.2 659.3C316.9 665.7 314.9 671.6 311.6 676.7L310.8 673.7 297.3 677.3 289.7 689 292.3 690.6C289.4 691.4 286.3 691.9 283.2 691.9 280.1 691.9 276.8 691.6 273.9 690.7Z"/><path d="M296 656 283 646 270 656 275 671 283 671 291 671Z"/></g></svg>